<svg xmlns="http://www.w3.org/2000/svg" version="1.1" xmlns:xlink="http://www.w3.org/1999/xlink" viewBox="0 0 10.006363917933434 10.006363917933434"><g transform="matrix(0.8571428571428571,0,0,0.8571428571428571,2.974313235974969,3.792878318673394)"><rect width="11.674091237589007" height="11.674091237589007" x="-3.4700321086374637" y="-4.425024705118959" fill="#1c3423"></rect><g><path d=" M -0.9151158956339247 2.0125474222359845 L -0.9251218915310884 1.9365430828705221 L -1.3980915702575638 1.9988096942815343 L -1.38636479799592 2.0878848436015667 L -1.2914803998071898 2.075393281844598 L -1.2707036185175378 2.23321120944422 L -1.4938755958900098 2.262591872556274 L -1.5817626553943964 1.5950123567284238 L -1.3585906780219243 1.56563169361637 L -1.337686431816385 1.7244178293607753 L -1.432570830005115 1.736909391117744 L -1.4192507462948782 1.838087142247563 L -0.9462810675684027 1.7758205308365511 L -0.9564782608393975 1.6983638792539142 L -0.8238337450041321 1.6809011857773357 L -0.7824713797986593 1.9950847287594058 L -0.9151158956339247 2.0125474222359845 M -1.584067776175302 1.3407266533294426 L -1.5454826129252335 0.9510306578029208 Q -1.5398536053189265 0.8941797457373309 -1.5184206940191327 0.8511603556192666 Q -1.496987782719339 0.8081409655012023 -1.4655313225908406 0.7803434397305765 Q -1.434074862462342 0.7525459139599507 -1.394805482634184 0.7399967048598782 Q -1.355536102806026 0.7274474957598058 -1.3147200633743203 0.7314888345540773 Q -1.2773053605619236 0.7351933951154929 -1.2499166915508113 0.7460012796475272 Q -1.2225280225396988 0.7568091641795616 -1.2021777891777083 0.7742801818919538 Q -1.181827555815718 0.791751199604346 -1.167276939436464 0.8157626758217367 Q -1.1527263230572098 0.8397741520391274 -1.1419595359711892 0.8697896736190112 Q -1.1268723299743773 0.8462593974003692 -1.0990000642294624 0.829883041301048 Q -1.0711277984845478 0.8135066852017266 -1.0288636302990668 0.8078780305455239 L -0.9306866297448545 0.7925747654437918 L -0.9246727327295694 0.7318366115275633 L -0.7812344671350258 0.7450575980209764 L -0.802403384628829 0.9588558998061005 L -0.9802159384749037 0.9706901902818694 Q -1.0117468738651132 0.9719842220920119 -1.0352315238802126 0.9787362991819277 Q -1.0587161738953115 0.9854883762718434 -1.0745418246793321 0.9991321587474609 Q -1.0903674754633528 1.0127759412230781 -1.099311096039412 1.0337251675515438 Q -1.108254716615471 1.0546743938800092 -1.11118949835893 1.0843146129911285 L -1.117395840078704 1.1469963878326763 L -0.957047113739861 1.1628730759530288 L -0.950359660258864 1.0953322487981827 L -0.8172216268744912 1.1085147110556874 L -0.8474354454792832 1.4136631963308193 L -0.980573478863656 1.4004807340733145 L -0.9730200242124579 1.3241936127545317 L -1.4428903829084012 1.2776701054442867 L -1.4504438375595994 1.3539572267630697 L -1.584067776175302 1.3407266533294426 M -1.4269174724358042 1.116349568642784 L -1.2485902525377577 1.1340063702796608 L -1.2390161284894239 1.037311229245025 Q -1.2362737914504538 1.0096146310592249 -1.2391867378658534 0.9870007756844338 Q -1.2420996842812528 0.9643869203096427 -1.2514689387621998 0.947512498828672 Q -1.260838193243147 0.9306380773477012 -1.276517025526221 0.9204989558112717 Q -1.2921958578092954 0.9103598342748422 -1.3150334036817972 0.908098608997095 Q -1.3577930640388223 0.9038648254983344 -1.3846334244696874 0.9321194074421219 Q -1.4114737849005525 0.9603739893859092 -1.4173433483874707 1.0196544276081483 L -1.4269174724358042 1.116349568642784 M -0.7588872446398511 0.2548473318273772 L -0.7347906344262496 0.18516565993075507 L -0.8462421176579615 0.18175700206588874 L -0.920606490899937 0.39680110209122554 L -0.8308579148804753 0.4629694114656323 L -0.8053250828660632 0.38913452733676135 L -0.6788828437953716 0.43285950216144214 L -0.7706414588471653 0.6982036169995723 L -0.8970836979178569 0.6544786421748915 L -0.8790511353076783 0.6023327552588764 L -1.3862878007208383 0.21354785208935367 L -1.3222961404847178 0.028499173741370676 L -0.6846824515979657 0.04026469982784575 L -0.6671286295880574 -0.010496783010753075 L -0.5406863905173658 0.03322819181392778 L -0.6324450055691595 0.298572306652058 L -0.7588872446398511 0.2548473318273772 M -1.0261354696990146 0.319492596829536 L -0.9773039284714513 0.17828338093307017 L -1.2293830160074068 0.17067641826270108 L -1.0261354696990146 0.319492596829536 M -1.134854534391148 -0.41911163241067023 L -0.9833127299616542 -0.659513746165626 Q -0.9562330948058684 -0.7024721994826628 -0.920214023681469 -0.7348893354689204 Q -0.8841949525570696 -0.767306471455178 -0.8424734707023855 -0.7886254164169284 Q -0.8007519888477017 -0.8099443613786786 -0.7548815136050808 -0.8199899439818388 Q -0.7090110383624602 -0.8300355265849988 -0.6618155329191061 -0.8279904920285734 Q -0.6146200274757522 -0.8259454574721481 -0.5677830997276464 -0.8114281033964916 Q -0.5209461719795406 -0.7969107493208352 -0.47757465661137855 -0.7695707330577822 Q -0.4342031412432164 -0.7422307167947292 -0.40090603107300354 -0.7062341360605544 Q -0.36760892090279074 -0.6702375553263795 -0.3452034707315226 -0.6284083733082866 Q -0.3227980205602544 -0.5865791912901935 -0.31166593274757637 -0.5406010158841638 Q -0.30053384493489843 -0.494622840478134 -0.30156871475373503 -0.44765635645056734 Q -0.30260358457257164 -0.4006898724230007 -0.316317304936202 -0.35421215664431577 Q -0.3300310252998323 -0.3077344408656309 -0.3571106604556181 -0.2647759875485941 L -0.508652464885112 -0.02437387379363829 L -0.6218314668934588 -0.09571829718484326 L -0.5903253529141311 -0.14569880537101104 L -0.9897563563523482 -0.39748733609836584 L -1.021262470331676 -0.34750682791219806 L -1.134854534391148 -0.41911163241067023 M -0.9033098287396472 -0.5346239370719832 L -0.5038788253014301 -0.28283540634462845 L -0.4708104246784994 -0.33529428683754836 Q -0.4497195549898585 -0.36875231297870203 -0.44666847320938563 -0.40838726273588 Q -0.4436173914289127 -0.448022212493058 -0.4568727570924633 -0.4869694637287014 Q -0.47012812275601384 -0.5259167149643449 -0.4986122999553253 -0.5617653665423755 Q -0.5270964771546368 -0.5976140181204062 -0.5692288063694229 -0.6241728910616576 Q -0.6109480735330837 -0.650471382895642 -0.655369348357397 -0.6605799967502671 Q -0.6997906231817105 -0.6706886106048923 -0.7404398551900185 -0.6657210938676146 Q -0.7810890871983266 -0.660753577130337 -0.8151198228132011 -0.6406472104181968 Q -0.8491505584280755 -0.6205408437060568 -0.8702414281167163 -0.5870828175649032 L -0.9033098287396472 -0.5346239370719832 M -0.637902222125139 -1.1385836175533002 L -0.4242275743881001 -1.3726034646830032 L -0.32542720749512843 -1.2823925964550391 L -0.37810508675233373 -1.2246989515540339 L -0.029058535101251295 -0.9059977820479419 L 0.023619344155954014 -0.9636914269489473 L 0.12241971104892568 -0.8734805587209833 L -0.0912549366881132 -0.6394607115912803 L -0.19005530358108488 -0.7296715798192442 L -0.1383651345599522 -0.7862834688783558 L -0.48741168621103464 -1.1049846383844475 L -0.5391018552321674 -1.048372749325336 L -0.637902222125139 -1.1385836175533002 M 0.2016085945820128 -1.1264879154296565 L 0.2623487749023946 -1.1732576711583527 L -0.028696138135415827 -1.551239557610665 L -0.09988208195038559 -1.4964265954827662 L -0.041494361422841214 -1.4205980901146464 L -0.16761728361675504 -1.3234838202576082 L -0.3049475854698058 -1.5018355599244617 L 0.22856011301303825 -1.9126348793503989 L 0.36589041486608903 -1.7342831396835454 L 0.23899373241331684 -1.6365730767598996 L 0.18060601188577247 -1.7124015821280196 L 0.09974806483507309 -1.6501412066675258 L 0.39079297787288353 -1.2721593202152137 L 0.4526937985815529 -1.3198227655438213 L 0.5343174487067934 -1.213817610080225 L 0.2832322447072534 -1.0204827599660602 L 0.2016085945820128 -1.1264879154296565 M 0.4163700537721439 -2.0129012955001393 L 0.6972278594266141 -2.159669946577653 L 0.7591918199739776 -2.04109515651706 L 0.6899510666539233 -2.0049118218908624 L 0.9088602411424187 -1.586005264304534 L 0.978100994462473 -1.6221885989307316 L 1.0400649550098364 -1.5036138088701385 L 0.7592071493553662 -1.3568451577926246 L 0.6972431888080027 -1.4754199478532177 L 0.7651856780033061 -1.510924844955174 L 0.5462765035148106 -1.9298314025415024 L 0.4783340143195073 -1.8943265054395462 L 0.4163700537721439 -2.0129012955001393 M 1.4436393172869546 -1.6366797223004397 Q 1.3954811274477164 -1.6221824309294162 1.347589923532405 -1.6220434399257506 Q 1.2996987196170937 -1.621904448922085 1.2544146969780634 -1.6342786084858008 Q 1.2091306743390329 -1.6466527680495167 1.1679745970833286 -1.6707230660818706 Q 1.1268185198276244 -1.6947933641142248 1.0925277633479276 -1.7290891788374796 Q 1.0582370068682307 -1.7633849935607342 1.0320055304320894 -1.8064810072333286 Q 1.0057740539959479 -1.849577020905923 0.9904322602149618 -1.9005405421921073 Q 0.9750904664339756 -1.9515040634782914 0.9731014873372019 -2.002152875657807 Q 0.9711125082404284 -2.052801687837322 0.980771944429551 -2.100328040316657 Q 0.9904313806186736 -2.147854392795991 1.0114601504369374 -2.190644494249182 Q 1.032488920255201 -2.2334345957023722 1.0634164019248682 -2.268751070736737 Q 1.0943438835945354 -2.304067545771102 1.134353065016863 -2.330389630279596 Q 1.1743622464391905 -2.3567117147880903 1.2225204362784288 -2.371209006159114 Q 1.2706786261176672 -2.3857062975301373 1.3188036076535572 -2.3859156637346333 Q 1.3669285891894476 -2.3861250299391292 1.412212611828478 -2.3737508703754133 Q 1.4574966344675082 -2.3613767108116974 1.4986527117232127 -2.3373064127793435 Q 1.539808788978917 -2.3132361147469895 1.5743333230791925 -2.2790106752245647 Q 1.6088578571794683 -2.2447852357021403 1.6351597088164398 -2.201455444408967 Q 1.6614615604534113 -2.1581256531157935 1.6768033542343974 -2.1071621318296097 Q 1.6920043976137233 -2.056666165784583 1.6939933767104969 -2.006017353605068 Q 1.6959823558072706 -1.9553685414255524 1.6860891419975692 -1.9077718137453876 Q 1.6761959281878676 -1.8601750860652229 1.655167158369604 -1.8173849846120322 Q 1.63413838855134 -1.7745948831588418 1.6032109068816731 -1.739278408124477 Q 1.572283425212006 -1.7039619330901121 1.5320404661690994 -1.6775694733807878 Q 1.491797507126193 -1.6511770136714634 1.4436393172869546 -1.6366797223004397 M 1.3994436911655816 -1.783492068023943 Q 1.4401209971462976 -1.7957373529683998 1.4687406120679616 -1.8234750786321927 Q 1.4973602269896256 -1.8512128042959852 1.5125946986227263 -1.8886891382369961 Q 1.5278291702558269 -1.9261654721780068 1.5291203352868536 -1.9701528317443082 Q 1.5304115003178806 -2.01414019131061 1.51689946175848 -2.0590254944617445 Q 1.503246672797419 -2.104378352854037 1.4775830362610505 -2.140506341945443 Q 1.451919399724682 -2.176634331036849 1.4182943486568078 -2.199402248004345 Q 1.3846692975889336 -2.2221701649718417 1.3457271801633168 -2.2295694575957032 Q 1.3067850627376998 -2.2369687502195648 1.2665753119981416 -2.224864215676768 Q 1.2263655612585833 -2.2127596811339716 1.197979723957498 -2.1850923306710093 Q 1.1695938866564128 -2.157424980208047 1.1543594150233123 -2.119948646267036 Q 1.1391249433902115 -2.082472312326025 1.1374365983188572 -2.0381104247374844 Q 1.135748253247503 -1.9937485371489438 1.149401042208564 -1.9483956787566514 Q 1.1629130807679648 -1.9035103756055167 1.1887401197240817 -1.8676865393355198 Q 1.214567158680199 -1.8318627030655228 1.2479584321274941 -1.8090244108971962 Q 1.2813497055747893 -1.7861861187288697 1.3202918230004064 -1.7787868261050082 Q 1.3592339404260234 -1.7713875334811466 1.3994436911655816 -1.783492068023943 M 2.3355754561268833 -2.5282246854114945 L 2.616648334833567 -2.5382046330835837 L 2.621413066795068 -2.404011852451052 L 2.561392295821245 -2.4018807177919084 L 2.582894231691145 -1.7963052968283753 L 2.420886947436598 -1.7905529658784907 L 2.0959957405224228 -2.257834344613668 L 2.1082281069399484 -1.9133248786988784 L 2.1702007729047903 -1.9155253185501897 L 2.174948178568249 -1.7818205116654129 L 1.8943632736093197 -1.7718578902913658 L 1.8896158679458608 -1.9055626971761426 L 1.9506125864151933 -1.9077284844313702 L 1.9338580562087522 -2.379599098510126 L 1.873837285234929 -2.3774679638509824 L 1.8690725532734282 -2.511660744483514 L 2.0925645297450624 -2.519596188986668 L 2.4157290835427627 -2.0459018463385124 L 2.4032888015487353 -2.396266997226358 L 2.3403401880883843 -2.3940319047789633 L 2.3355754561268833 -2.5282246854114945 M 3.1372448562628867 -1.830979225214842 L 3.2093312157150544 -1.8154957242209586 L 3.199222147992665 -1.9265401244074265 L 2.9767569592197503 -1.9743236440309344 L 2.9219405641242933 -1.8772246487131299 L 2.9983234615570535 -1.8608182900441141 L 2.9702275723363645 -1.7300125781905118 L 2.695726534687381 -1.7889729296572867 L 2.7238224239080706 -1.919778641510889 L 2.7777678452199575 -1.908191650700897 L 3.1022855583865043 -2.458764978708304 L 3.2937201950773605 -2.4176465422940834 L 3.359232651926847 -1.7832982453330155 L 3.41174589391187 -1.7720188737480673 L 3.383650004691181 -1.6412131618944648 L 3.1091489670421977 -1.7001735133612397 L 3.1372448562628867 -1.830979225214842 M 3.0407211886976007 -2.088435640330525 L 3.186803480037755 -2.0570584793760327 L 3.1638370339076274 -2.3082044023096535 L 3.0407211886976007 -2.088435640330525 M 3.767037031972219 -2.2797910690619316 L 4.05484801973597 -2.147175160292994 L 3.998654838054217 -2.025221351918523 L 3.9276998949999795 -2.0579155667151796 L 3.730104234322687 -1.6290816296311315 L 3.8764488043720515 -1.5616498116130275 Q 3.8822138934952086 -1.558993406660799 3.889289789739914 -1.5597651840854778 Q 3.8963656859846196 -1.5605369615101563 3.9030307018382144 -1.5639173632356727 Q 3.909695717691809 -1.567297764961189 3.9152172718510503 -1.5722802894235601 Q 3.9207388260102913 -1.5772628138859313 3.92339523096252 -1.5830279030090881 L 3.964876015985778 -1.673051987009152 L 4.108559775670608 -1.6068462020459227 L 3.9947430404097486 -1.3598343065383585 L 3.457259346773899 -1.607492983623031 L 3.5132481896131735 -1.7290033236034126 L 3.582872727485144 -1.6969221253341935 L 3.7804683881624364 -2.1257560624182417 L 3.7108438502904657 -2.1578372606874607 L 3.767037031972219 -2.2797910690619316 M 4.3521813568277725 -1.3141232874058124 L 4.4009605632838715 -1.265537396566687 L 4.7341701834358885 -1.6000728053826285 L 4.6853909769797895 -1.6486586962217542 L 4.780150693155389 -1.743795446402089 L 4.996024628110041 -1.5287770358800012 L 4.7736937111446 -0.9962781346880758 L 5.294235095948036 -1.2317483982677582 L 5.513222597272225 -1.0136287606708325 L 5.418462881096626 -0.9184920104904974 L 5.369683674640527 -0.9670779013296231 L 5.036474054488509 -0.6325424925136814 L 5.084561357306933 -0.584645763246742 L 4.990146221917426 -0.4898549648852446 L 4.793991540636517 -0.6852322706000263 L 4.888406676026024 -0.7800230689615237 L 4.924385665185133 -0.7441866672078424 L 5.224860110658307 -1.0458566532342137 L 4.67911085819304 -0.8120626784716842 L 4.581898397099679 -0.9088898793638422 L 4.800418359926928 -1.4479412996225145 L 4.510281338036547 -1.1566498681612707 L 4.5493738935651935 -1.1177122393327514 L 4.454958758175687 -1.022921440971254 L 4.257766221438265 -1.2193324890443151 L 4.3521813568277725 -1.3141232874058124 M 5.689903978218837 -0.7216493765753399 L 5.971914240910776 -0.20470181999867515 L 5.750304052892421 -0.0838068732227778 L 5.674072423010521 -0.22354559912990277 L 5.766231398685465 -0.27382106055508254 L 5.675267889409209 -0.44056450956695864 L 5.547102616261264 -0.3706465422826389 L 5.617488262256515 -0.24162397633771676 L 5.493180806694962 -0.17381056325259056 L 5.422795160699711 -0.3028331291975127 L 5.272340274830383 -0.22075551542896343 L 5.363303784106638 -0.054012066417087334 L 5.478609665299941 -0.11691485303742849 L 5.554841295181841 0.022823872869696504 L 5.322086300802796 0.1497986428877086 L 5.040076038110858 -0.36714891368895614 L 5.157525151296601 -0.4312208970866271 L 5.194705608815687 -0.363066119727017 L 5.597633223394514 -0.5828751138650122 L 5.560452765875427 -0.6510298912246223 L 5.689903978218837 -0.7216493765753399 M 5.592441489982628 0.571235224974006 L 5.612576873834053 0.6421629934377782 L 5.705908313722831 0.5811523845957436 L 5.643768652300551 0.36226271503204904 L 5.532302032254198 0.3593913602245935 L 5.553637538321934 0.43454661157693497 L 5.424934170381049 0.4710836657179319 L 5.348259695450125 0.20099448117045476 L 5.476963063391009 0.16445742702945781 L 5.492031264551348 0.21753582329704896 L 6.13049617821124 0.24591344999948392 L 6.183968290293502 0.43427129870128967 L 5.6544478044919835 0.7896551742167484 L 5.669115964913551 0.8413244095214831 L 5.540412596972667 0.8778614636624801 L 5.463738122041743 0.6077722791150029 L 5.592441489982628 0.571235224974006 M 5.774551460585242 0.36523381067889094 L 5.815355615939786 0.508968228890244 L 6.026392309578993 0.37089127139240546 L 5.774551460585242 0.36523381067889094 M 6.284212986068956 0.9169554195889584 L 6.302078602344362 1.2333459436114982 L 6.168014820978879 1.2409161199993817 L 6.1636103547168375 1.1629153744776461 L 5.692193348969848 1.1895348674488584 L 5.701277560635309 1.3504114050874378 Q 5.701635423519099 1.356748965661079 5.705635807392153 1.3626363145489313 Q 5.709636191265206 1.3685236634367837 5.7157477623636455 1.3728246227324836 Q 5.721859333462084 1.3771255820281836 5.728849566180062 1.37966521918732 Q 5.7358397988980405 1.3822048563464564 5.742177359471682 1.3818469934626656 L 5.841140805352384 1.3762588268927007 L 5.850059849533017 1.534210336574215 L 5.578519754185476 1.5495433847489464 L 5.545155922250513 0.9586877374218 L 5.678732198956484 0.9511450889480543 L 5.683054081476112 1.0276833204912572 L 6.154471087223102 1.001063827520045 L 6.150149204703474 0.924525595976842 L 6.284212986068956 0.9169554195889584 M 6.042752219370339 2.057151959672791 Q 6.0600154844499645 2.0572058360825354 6.076369269060202 2.0499717053025512 Q 6.09272305367044 2.0427375745225667 6.105746190587363 2.02958895506186 Q 6.118769327504286 2.0164403356011538 6.127766976011929 1.9987561336097048 Q 6.136764624519573 1.9810719316182563 6.139728211710809 1.9607793831214533 Q 6.14240955250288 1.9424194582910126 6.140872837963269 1.925910820245194 Q 6.139336123423659 1.9094021821993752 6.133092809994803 1.89640059584635 Q 6.126849496565947 1.8833990094933246 6.115310585931566 1.874558647108187 Q 6.103771675297187 1.8657182847230493 6.086378062299927 1.8631780671305613 Q 6.064636046053352 1.8600027951399514 6.050456463067772 1.8675544531189965 Q 6.036276880082192 1.8751061110980418 6.025911100706517 1.8886428193576008 Q 6.015545321330841 1.9021795276171596 6.008102982972657 1.9193506805330967 Q 6.000660644614472 1.9365218334490333 5.992393117622689 1.9525855513322066 L 5.928538333353742 2.0789617612138036 Q 5.914853203833825 2.1050904164636384 5.8944146667635895 2.1267785563004686 Q 5.873976129693354 2.1484666961372993 5.847242835471442 2.1625738071032874 Q 5.820509541249531 2.176680918069276 5.787622613075528 2.18224068833124 Q 5.754735684901524 2.187800458593205 5.71560005565769 2.182084969010107 Q 5.662452904832731 2.17432319303306 5.62134346121454 2.148334272830132 Q 5.580234017596349 2.122345352627203 5.553979879802731 2.082488466729657 Q 5.527725742009113 2.04263158083211 5.517529412190569 1.9908094597473864 Q 5.507333082372026 1.9389873386626628 5.516082720746152 1.8790760050054351 Q 5.522221579927997 1.8370414402620576 5.537111644285341 1.8009728079222214 Q 5.552001708642686 1.764904175582385 5.574394419943181 1.7365929761128696 Q 5.596787131243676 1.7082817766433542 5.625056617738074 1.6887242150362616 Q 5.6533261042324705 1.6691666534291691 5.686636402005222 1.6607079476676612 L 5.693904246783729 1.610942888258835 L 5.839334177677484 1.6321819297960267 L 5.813790878553021 1.8070843716018041 L 5.783835211724407 1.8027095524147414 Q 5.762093195477832 1.7995342804241314 5.742710127450417 1.8038587004226234 Q 5.723327059423003 1.8081831204211158 5.707752407364518 1.8202189172080843 Q 5.692177755306035 1.8322547139950527 5.681584128208062 1.852419869528271 Q 5.67099050111009 1.8725850250614893 5.666827366722401 1.9010912241403315 Q 5.660476822741181 1.9445752566334806 5.677211398089496 1.9702118911045765 Q 5.6939459734378115 1.9958485255756726 5.729699511265512 2.001070083960231 Q 5.748059436095952 2.003751424752302 5.761544178365568 1.997578672923237 Q 5.775028920635184 1.991405921094172 5.785318750770093 1.9800786952591662 Q 5.795608580905003 1.9687514694241603 5.803664423097412 1.954137219290759 Q 5.811720265289821 1.9395229691573574 5.818739234049258 1.9252507517409638 L 5.870651378229174 1.8198296052262877 Q 5.884901000547422 1.789835702643729 5.906563590332057 1.7631449872824891 Q 5.928226180116692 1.736454271921249 5.957597714002879 1.7177978481885208 Q 5.986969247889065 1.6991414244557925 6.023938495836141 1.6909703527344242 Q 6.0609077437832175 1.6827992810130559 6.105841244026139 1.68936150979365 Q 6.158022083017917 1.6969821625711141 6.196026293978165 1.7222708544171037 Q 6.234030504938413 1.7475595462630933 6.256973112915688 1.7864393450455098 Q 6.279915720892964 1.8253191438279266 6.287424800011338 1.8752684275641305 Q 6.2949338791297125 1.9252177113003346 6.286607610354335 1.982230109458019 Q 6.280045381573741 2.02716360970094 6.264083162983528 2.063815852716079 Q 6.248120944393317 2.1004680957312187 6.226317231409099 2.1281251229256397 Q 6.20451351842488 2.1557821501200607 6.178977338712497 2.1735183181014524 Q 6.1534411590001135 2.191254486082844 6.127660446375386 2.19883899217486 L 6.120604286396253 2.247154583833914 L 5.974691199585908 2.225844980696931 L 6.000234498710371 2.050942538891154 L 6.042752219370339 2.057151959672791" fill="#ffffff" fill-rule="nonzero"></path></g><g><path d=" M 0.2507812710027344 4.0789736301838175 Q 0.263104978090666 4.018994482889748 0.2452730709101889 3.962370342640424 Q 0.22744116372971157 3.9057462023911 0.18067976363465765 3.8635616587917374 Q 0.14079504002417043 3.8275807245452222 0.09258814998377385 3.814651257038743 Q 0.04438125994337727 3.801721789532264 -0.004761245596759611 3.8088407179975996 Q -0.05390375113689633 3.815959646462935 -0.10062401719677044 3.8414787586212995 Q -0.14734428325664461 3.866997870779664 -0.18456593937372917 3.9082579296870645 Q -0.22861156577894587 3.957082332727489 -0.24813530636819536 4.0077597161214715 Q -0.2676590469574448 4.058437099515454 -0.2669383477261039 4.104302233337869 Q -0.26621764849476304 4.150167367160283 -0.24928485552218266 4.195690091126098 Q -0.23235206254960222 4.241212815091913 -0.19246733893911505 4.277193749338428 Q -0.13814159471103765 4.326202263225922 -0.07418423150168069 4.336190090386612 Q -0.010226868292323776 4.346177917547302 0.0725929209560432 4.311751977121659 L 0.1073626952059139 4.3948819468376685 Q 0.060797519379861 4.420229142083919 -0.0016644956229761032 4.426558018863411 Q -0.06412651062581315 4.432886895642904 -0.12910442492030205 4.41262358340269 Q -0.19408233921479107 4.392360271162476 -0.24978341873978183 4.342111035404412 Q -0.3030776614951742 4.294033062919844 -0.3296305012877794 4.233595323408978 Q -0.3561833410803846 4.173157583898112 -0.3575829837341848 4.104540213415751 Q -0.35898262638798495 4.03592284293339 -0.33147102677313006 3.968440781928729 Q -0.3039594271582752 3.900958720924068 -0.2540203718678534 3.845601475223306 Q -0.20377113610978925 3.789900395698315 -0.14071003917307168 3.756982980028301 Q -0.0776489422363541 3.7240655643582876 -0.011434758394406996 3.717379677205458 Q 0.05477942544754022 3.710693790052629 0.11975733974202907 3.7309571022928427 Q 0.18473525403651803 3.7512204145330568 0.23837333061613875 3.799608567485267 Q 0.2861662321838778 3.8427236524875563 0.3086413199590662 3.887633315776455 Q 0.33111640773425477 3.932542979065354 0.3384518568558432 3.9731496454545856 Q 0.3457873059774319 4.013756311843817 0.3434712810839653 4.051580880444192 L 0.37991766645216907 4.084460010014283 L 0.3247055432118271 4.145662430726928 L 0.2507812710027344 4.0789736301838175 M 0.5336112390632624 4.067770752106657 L 0.7321461589904877 4.178584818901784 L 0.6931016914638954 4.248537041197934 L 0.6304277350713905 4.213555003818617 L 0.47109019707269584 4.499024766483833 Q 0.44242749547802984 4.550376975915111 0.43375211103762684 4.592998312446981 Q 0.4250767265972239 4.6356196489788495 0.43274478908683744 4.669862690422927 Q 0.440412851576451 4.7041057318670045 0.46264709026946294 4.730304276796474 Q 0.48488132896247493 4.756502821725943 0.518442221740397 4.775235138516157 Q 0.5532161588355933 4.794644526997584 0.5875201054161393 4.80159424115425 Q 0.6218240519966853 4.808543955310916 0.6549481151669226 4.7981300475795825 Q 0.6880721783371598 4.787716139848249 0.7200210953695119 4.757554817343661 Q 0.7519700124018638 4.727393494839072 0.78243823850643 4.672806500561729 L 0.9417757765051247 4.387336737896513 L 0.8754626871607969 4.350323485443559 L 0.9145071546873892 4.2803712631474085 L 1.1130420746146146 4.391185329942535 L 1.0739976070880222 4.461137552238685 L 1.0194106128106792 4.430669326134119 L 0.8650382672142102 4.707243430472657 Q 0.8280250147612556 4.773556519816984 0.7809644743545961 4.814639808598205 Q 0.7339039339479368 4.855723097379426 0.6825510451116198 4.8726674799393574 Q 0.6311981562753028 4.889611862499289 0.5778896788728665 4.883456462885609 Q 0.5245812014704303 4.877301063271929 0.4748463844621844 4.849541123932213 Q 0.42632461177121284 4.82245825628371 0.39400061952394294 4.781082275719782 Q 0.36167662727667316 4.7397062951558535 0.3495233469981105 4.687845687476758 Q 0.3373700667195479 4.635985079797661 0.34702367007115975 4.576409206755974 Q 0.3566772734227716 4.516833333714287 0.392336382493301 4.452946333004508 L 0.5507711582370456 4.169093962762324 L 0.4945667715366701 4.1377229744028075 L 0.5336112390632624 4.067770752106657 M 1.1957293665377389 4.41121344269379 L 1.4130325617809234 4.479667671320785 L 1.3889622740726506 4.55607712818475 L 1.3218279535910165 4.534928667308118 L 1.1589013240743269 5.0521279389133396 L 1.3898963873104764 5.12489534048228 Q 1.3969631578874906 5.127121494258767 1.4050734380472334 5.12603509932728 Q 1.413183718206976 5.124948704395792 1.4205950846331656 5.121457376406427 Q 1.4280064510593555 5.117966048417063 1.433696422818835 5.112233191308825 Q 1.4393863945783143 5.106500334200586 1.4416125483548021 5.099433563623572 L 1.4681872590616232 5.015073989860466 L 1.5521051596636661 5.0415095659562565 L 1.4896337193109814 5.239820815273715 L 0.9848012962155344 5.080789954865879 L 1.0087324493127765 5.004822171162977 L 1.0723333845059038 5.024857555151367 L 1.2352600140225933 4.507658283546144 L 1.171659078829466 4.487622899557755 L 1.1957293665377389 4.41121344269379 M 1.822337061917036 5.209482481474619 L 1.8862768502714808 5.216883526009483 L 1.9491058614307604 4.674085322712757 L 1.7899463882607034 4.655662578762663 L 1.7773805860288476 4.764222219422008 L 1.6830808981679757 4.753307009856202 L 1.7043788680524772 4.569307618908159 L 2.3262968094568617 4.641294757117773 L 2.30499883957236 4.825294148065816 L 2.2106991517114882 4.81437893850001 L 2.2232649539433442 4.705819297840664 L 2.0392655629953014 4.684521327956163 L 1.9764365518360218 5.227319531252888 L 2.0481963143057587 5.235625739507844 L 2.039038187255423 5.314745477615503 L 1.8131789348667005 5.288602219582277 L 1.822337061917036 5.209482481474619 M 2.37839081031296 4.639131331529242 L 2.6046523704546014 4.616735389208033 L 2.612543405121748 4.696456875775251 L 2.5411166397002525 4.703526877933678 L 2.573319359208956 5.028864273982555 Q 2.5791121996871507 5.087388139844038 2.596327864252904 5.127331368513127 Q 2.6135435288186573 5.167274597182216 2.6393919596298616 5.191007352906822 Q 2.6652403904410655 5.214740108631428 2.6984531662663107 5.223551274766578 Q 2.7316659420915563 5.232362440901728 2.769913822930164 5.228576568778184 Q 2.809544157293058 5.224653857903186 2.84167394478147 5.210770917515437 Q 2.8738037322698826 5.1968879771276875 2.895049947118739 5.169424339536524 Q 2.916296161967596 5.141960701945359 2.9253015014461443 5.0989567191572265 Q 2.934306840924693 5.055952736369094 2.9281490971092894 4.993742327776179 L 2.895946377600586 4.668404931727301 L 2.820372251606229 4.675885450140088 L 2.8124812169390823 4.59616396357287 L 3.0387427770807234 4.573768021251661 L 3.0466338117478706 4.653489507818879 L 2.984423403154955 4.659647251634283 L 3.015622638486333 4.974846655171722 Q 3.02310315689912 5.050420781166078 3.007928785592295 5.1110200347579395 Q 2.9927544142854696 5.1716192883498 2.960272515687576 5.214853043167634 Q 2.927790617089683 5.258086797985468 2.8805128828700046 5.28347377406423 Q 2.833235148650327 5.308860750142993 2.7765545541545595 5.314471138952583 Q 2.7212564131830788 5.31994468901072 2.671093980399098 5.304435253830137 Q 2.620931547615117 5.288925818649555 2.581341066946522 5.253291303207303 Q 2.5417505862779275 5.21765678776505 2.5156566099833224 5.163236377003224 Q 2.4895626336887173 5.108815966241396 2.4823557927788373 5.036006747295613 L 2.4503355249387386 4.7125126226124525 L 2.386281844980107 4.71885281809646 L 2.37839081031296 4.639131331529242 M 3.119581313086662 4.546933064577022 L 3.3969569736672915 4.45505353495143 Q 3.4413546626033353 4.440346985835449 3.482797493846952 4.439546280958108 Q 3.5242403250905685 4.438745576080769 3.5592130264566655 4.452283414303119 Q 3.5941857278227625 4.465821252525469 3.620782989156348 4.494572666674142 Q 3.647380250489934 4.523324080822816 3.6619411902087284 4.567282188680285 Q 3.6702409258484407 4.592338310159042 3.6693108352815904 4.619720052662291 Q 3.66838074471474 4.647101795165538 3.659252481713191 4.673296639395196 Q 3.650124218711642 4.699491483624854 3.6335327124788614 4.723036453391514 Q 3.616941206246081 4.746581423158175 3.593918110553933 4.7639639991637575 Q 3.6065093408873676 4.76515915609838 3.620703651033375 4.770457528580869 Q 3.6348979611793824 4.7757559010633575 3.649084012664357 4.7854473314445825 Q 3.663270064149332 4.7951387618258074 3.6768626664975117 4.808929278424381 Q 3.690455268845691 4.822719795022955 3.7015518647890944 4.840020078032599 L 3.786527776461389 4.97285064459846 L 3.8441128977546732 4.95377581356684 L 3.8726578453775318 5.037004999701655 L 3.742981427197998 5.0799597718720975 L 3.6261828332154167 4.893766756531403 Q 3.5945002545282967 4.843772594100967 3.558068706303309 4.827303297725782 Q 3.521637158078322 4.810834001350598 3.473283239435106 4.826851035041271 L 3.3875649291130414 4.855244867492919 L 3.4647379096226505 5.088222839137505 L 3.5315542335660033 5.066090210764938 L 3.5565990498823292 5.1416981562797845 L 3.340325159223582 5.213337979696252 L 3.315280342907256 5.137730034181406 L 3.3785800182220114 5.116762280986342 L 3.2080714141149316 4.60201283797538 L 3.144771738800176 4.622980591170443 L 3.119581313086662 4.546933064577022 M 3.2942293055155707 4.573473396126543 L 3.363684987974219 4.78315357060667 L 3.491603081839454 4.740781236024979 Q 3.5166592033182114 4.7324815003852665 3.5353551635926896 4.718971337840219 Q 3.5540511238671684 4.705461175295172 3.564848389162357 4.687250218734947 Q 3.5756456544575457 4.6690392621747225 3.5777378673148887 4.646638520932983 Q 3.579830080172232 4.624237779691245 3.5712391257381433 4.5983024960553385 Q 3.554785263855906 4.548629834176398 3.5157203584899865 4.530837665234973 Q 3.476655453124067 4.513045496293548 3.411597453495013 4.5345956870773625 L 3.2942293055155707 4.573473396126543 M 4.447131997890794 4.636165218321911 L 4.497161512681139 4.606141963670553 L 4.367546104943771 4.498147022958523 L 4.136060334128128 4.637064145670756 L 4.1715726069027035 4.801531398703196 L 4.233513910928845 4.7643597500872295 L 4.2744980363259355 4.8326540083724625 L 4.079144692858875 4.949887669392048 L 4.038160567461784 4.881593411106815 L 4.090572440099288 4.850140477662536 L 3.957736541128008 4.204024254855677 L 4.0748691352800055 4.133731714203691 L 4.582132275896486 4.55515008672301 L 4.642485341357855 4.518931557302325 L 4.6834694667549455 4.5872258155875585 L 4.488116123287885 4.704459476607143 L 4.447131997890794 4.636165218321911 M 4.119138287071972 4.557570296699925 L 4.304962199150396 4.446055350852027 L 4.049702420228638 4.233082946644618 L 4.119138287071972 4.557570296699925 M 4.38420405799227 3.9232009295370203 L 4.550997353597598 3.7680021646549244 L 4.605569277021587 3.8266510267275295 L 4.554039640980917 3.8745986126260634 L 4.923425319186068 4.271580216597282 L 5.100727948457585 4.106602667749037 Q 5.106152120672393 4.101555553443928 5.109210458056681 4.093965858413128 Q 5.1122687954409685 4.086376163382329 5.112890599636668 4.078207253848322 Q 5.113512403832368 4.070038344314316 5.1113350979566965 4.062260120328666 Q 5.109157792081026 4.054481896343018 5.1041106777759175 4.04905772412821 L 5.0438607507586815 3.9843066683139465 L 5.108272795809519 3.924372185940779 L 5.249907440996635 4.076588018718812 L 4.86241813840133 4.4371412468900235 L 4.80816165962141 4.3788313955808436 L 4.8569792095546775 4.333407366834864 L 4.487593531349526 3.936425762863646 L 4.438775981416259 3.9818497916096254 L 4.38420405799227 3.9232009295370203" fill="#faecd3" fill-rule="nonzero"></path></g><g transform="matrix(1,0,0,1,0,0)" clip-path="url(#SvgjsClipPath139477)"><g clip-path="url(#SvgjsClipPath1394643984fc1d-bbaf-47a8-a6fc-c31190c4e3bc)"><path d=" M 4.044613808852284 0.5110309445516453 L 2.7294551229610655 0.5110309445516453 L 2.7761385410503867 0.1584421134549126 C 2.7855419234620746 0.1190687178400064 2.7758718754350737 0.07756555777111068 2.750033986753342 0.046403218457464986 C 2.724196098071611 0.01524087914381929 2.685201906020077 -0.0019485103391454922 2.6447681182864673 8.409321275440505e-16 L 2.089118148003221 8.409321275440505e-16 C 2.0487031604310517 -0.0018887317290009573 2.0097482891664837 0.01531714535880368 1.9839241955797082 0.04646284680256861 C 1.9581001019929323 0.07760854824633355 1.948406569154029 0.11907612139332194 1.9577477252393012 0.15844211345491344 L 2.004665733369273 0.5110309445516453 L 0.6895070474780542 0.5110309445516453 C 0.602579275441837 0.5092186840131101 0.530488917115738 0.577914089418038 0.5281090995109542 0.6648281752016886 C 0.5305140782972935 0.7517021056539938 0.6026204130544183 0.8203288905362108 0.6895070474780526 0.818437733819215 L 4.044613808852284 0.818437733819215 C 4.131472299645888 0.8202768562087516 4.203534498331852 0.7516721343425559 4.205964838811255 0.6648281752016902 C 4.203559700282788 0.5779440170535981 4.1315134233823585 0.5092706539597921 4.044613808852284 0.5110309445516437 Z" fill="#67a97b" transform="matrix(1,0,0,1,0,0)" fill-rule="nonzero"></path></g><g clip-path="url(#SvgjsClipPath1394643984fc1d-bbaf-47a8-a6fc-c31190c4e3bc)"><path d=" M 4.545182037590945 1.1811139366638914 L 4.070559467348158 1.1811139366638914 L 4.070559467348158 0.9144788964612657 L 0.66351447097405 0.9144788964612657 L 0.66351447097405 1.1811139366638914 L 0.188798064715003 1.1811139366638914 C 0.08708542500370553 1.1790391288675126 0.0027639482993121367 1.2594420876435457 0 1.3611383338585898 C 0.002865043131061183 1.4627751109142593 0.0871410601061961 1.5430928358396188 0.18879806471500216 1.5410688950370273 L 0.66351447097405 1.5410688950370273 L 0.66351447097405 2.286079946132841 C 0.6643905132991599 2.5828244630195694 0.9047318353056238 2.823165785026008 1.2014763521923262 2.8240418273510897 L 3.5325975861299095 2.8240418273510897 C 3.8293421030166117 2.823165785025993 4.069683425023064 2.582824463019541 4.070559467348159 2.2860799461328396 L 4.070559467348159 1.5410688950370306 L 4.545182037590945 1.5410688950370306 C 4.646830922187709 1.543092474245977 4.731093400125265 1.462767691026854 4.733933184297819 1.3611383338585925 C 4.731194539232845 1.259449508399672 4.646886579922849 1.1790394562315258 4.545182037590944 1.181113936663892 Z" fill="#67a97b" transform="matrix(1,0,0,1,0,0)" fill-rule="nonzero"></path></g></g><g><path d=" M -0.5447639208640753 1.4120209136755442 A 2.911777431021115 2.911777431021115 0 0 1 5.278790941178155 1.4120209136755442 A 2.911777431021115 2.911777431021115 0 0 1 -0.5447639208640753 1.4120209136755442 Z M -0.4947639208640755 1.4120209136755442 A 2.8617774310211153 2.8617774310211153 0 0 0 5.228790941178155 1.4120209136755442 A 2.8617774310211153 2.8617774310211153 0 0 0 -0.4947639208640755 1.4120209136755442 Z" fill="#ffffff" fill-rule="nonzero"></path></g><g><path d=" M -1.8273047889818912 1.4120209136755446 A 4.194318299138931 4.194318299138931 0 0 1 6.561331809295972 1.4120209136755446 A 4.194318299138931 4.194318299138931 0 0 1 -1.8273047889818912 1.4120209136755446 Z M -1.7773047889818914 1.4120209136755437 A 4.144318299138931 4.144318299138931 0 0 0 6.51133180929597 1.4120209136755437 A 4.144318299138931 4.144318299138931 0 0 0 -1.7773047889818914 1.4120209136755437 Z" fill="#ffffff" fill-rule="nonzero"></path></g><g transform="matrix(-0.6066303749275855,-0.7949840175847669,0.7949840175847669,-0.6066303749275855,-3.735536261551692,4.262822043858007)"><g clip-path="url(#SvgjsClipPath139478)"><path d=" M -0.8351933708393082 3.1834455513224613 C -0.8284548705151159 3.1834455513224613 -0.8234372895426599 3.1781408785908534 -0.8234372895426599 3.171689470025813 L -0.8234372895426599 2.92839502681512 C -0.8234372895426599 2.9218002354908212 -0.828598416394692 2.916638945518472 -0.8351933708393082 2.916638945518472 C -0.8417883252839243 2.916638945518472 -0.8469494521359564 2.9218002354908212 -0.8469494521359564 2.92839502681512 L -0.8469494521359564 3.171689470025813 C -0.8469494521359564 3.1781408785908534 -0.8417883252839243 3.1834455513224613 -0.8351933708393082 3.1834455513224613 Z M -0.7470219455128582 3.154915807756709 C -0.7402850763918429 3.154915807756709 -0.73526586421621 3.149754680904677 -0.73526586421621 3.143159726460061 L -0.73526586421621 2.9569252597418254 C -0.73526586421621 2.950330305297209 -0.7404269910682421 2.9451690153248595 -0.7470219455128582 2.9451690153248595 C -0.7537604458370505 2.9451690153248595 -0.7587780268095063 2.950330305297209 -0.7587780268095063 2.9569252597418254 L -0.7587780268095063 3.143159726460061 C -0.7587780268095063 3.149754680904677 -0.7537604458370505 3.154915807756709 -0.7470219455128582 3.154915807756709 Z M -0.8793508564423211 3.134414846228157 C -0.8726131717197174 3.134414846228157 -0.8674520448676855 3.129252088172948 -0.8674520448676855 3.1226587649315087 L -0.8674520448676855 2.97742671063133 C -0.8674520448676855 2.970831756186714 -0.8726131717197174 2.965670629334682 -0.8793508564423211 2.965670629334682 C -0.8859456477666197 2.965670629334682 -0.890963554979711 2.970831756186714 -0.890963554979711 2.97742671063133 L -0.890963554979711 3.1226587649315087 C -0.890963554979711 3.129252088172948 -0.8859456477666197 3.134414846228157 -0.8793508564423211 3.134414846228157 Z M -0.7910367008378836 3.1163492710428677 C -0.7844417463932675 3.1163492710428677 -0.7794241654208116 3.11104459831126 -0.7794241654208116 3.1045931897462196 L -0.7794241654208116 2.995491796455666 C -0.7794241654208116 2.9888961895297794 -0.7844417463932675 2.9837348995574295 -0.7910367008378836 2.9837348995574295 C -0.7977752011620759 2.9837348995574295 -0.8027927821345319 2.989039572289038 -0.8027927821345319 2.995491796455666 L -0.8027927821345319 3.1045931897462196 C -0.8027927821345319 3.11104459831126 -0.7977752011620759 3.1163492710428677 -0.7910367008378836 3.1163492710428677 Z M -0.7030088213910097 3.091977464375292 C -0.6962703210668175 3.091977464375292 -0.6912527400943616 3.08681633752326 -0.6912527400943616 3.080221383078644 L -0.6912527400943616 3.0198636031232424 C -0.6912527400943616 3.0132686486786264 -0.6962703210668175 3.0081075218265942 -0.7030088213910097 3.0081075218265942 C -0.709747321715202 3.0081075218265942 -0.714764902687658 3.0132686486786264 -0.714764902687658 3.0198636031232424 L -0.714764902687658 3.080221383078644 C -0.714764902687658 3.08681633752326 -0.709603775835626 3.091977464375292 -0.7030088213910097 3.091977464375292 Z M -0.9233646330454405 3.080652020717372 C -0.9166262958415659 3.080652020717372 -0.9116085517487922 3.07549089386534 -0.9116085517487922 3.068895939420724 L -0.9116085517487922 3.0311890467811624 C -0.9116085517487922 3.024594092336546 -0.9167696786008243 3.019289419604938 -0.9233646330454405 3.019289419604938 C -0.930102970249315 3.019289419604938 -0.9351207143420887 3.024594092336546 -0.9351207143420887 3.0311890467811624 L -0.9351207143420887 3.068895939420724 C -0.9351207143420887 3.07549089386534 -0.930102970249315 3.080652020717372 -0.9233646330454405 3.080652020717372 Z" fill="#ffffff" transform="matrix(1,0,0,1,0,0)" fill-rule="nonzero"></path></g></g><g transform="matrix(0.6066303749275855,-0.7949840175847669,-0.7949840175847669,-0.6066303749275855,4.611238137515272,9.319124779721234)"><g clip-path="url(#SvgjsClipPath139479)"><path d=" M 5.525063721151963 3.1834455513224613 C 5.5318022214761555 3.1834455513224613 5.536819802448611 3.1781408785908534 5.536819802448611 3.171689470025813 L 5.536819802448611 2.92839502681512 C 5.536819802448611 2.9218002354908212 5.53165867559658 2.916638945518472 5.525063721151963 2.916638945518472 C 5.518468766707347 2.916638945518472 5.513307639855315 2.9218002354908212 5.513307639855315 2.92839502681512 L 5.513307639855315 3.171689470025813 C 5.513307639855315 3.1781408785908534 5.518468766707347 3.1834455513224613 5.525063721151963 3.1834455513224613 Z M 5.613235146478413 3.154915807756709 C 5.619972015599428 3.154915807756709 5.6249912277750616 3.149754680904677 5.6249912277750616 3.143159726460061 L 5.6249912277750616 2.9569252597418254 C 5.6249912277750616 2.950330305297209 5.619830100923029 2.9451690153248595 5.613235146478413 2.9451690153248595 C 5.606496646154221 2.9451690153248595 5.601479065181765 2.950330305297209 5.601479065181765 2.9569252597418254 L 5.601479065181765 3.143159726460061 C 5.601479065181765 3.149754680904677 5.606496646154221 3.154915807756709 5.613235146478413 3.154915807756709 Z M 5.48090623554895 3.134414846228157 C 5.4876439202715535 3.134414846228157 5.492805047123586 3.129252088172948 5.492805047123586 3.1226587649315087 L 5.492805047123586 2.97742671063133 C 5.492805047123586 2.970831756186714 5.4876439202715535 2.965670629334682 5.48090623554895 2.965670629334682 C 5.474311444224652 2.965670629334682 5.46929353701156 2.970831756186714 5.46929353701156 2.97742671063133 L 5.46929353701156 3.1226587649315087 C 5.46929353701156 3.129252088172948 5.474311444224652 3.134414846228157 5.48090623554895 3.134414846228157 Z M 5.5692203911533875 3.1163492710428677 C 5.575815345598004 3.1163492710428677 5.5808329265704595 3.11104459831126 5.5808329265704595 3.1045931897462196 L 5.5808329265704595 2.995491796455666 C 5.5808329265704595 2.9888961895297794 5.575815345598004 2.9837348995574295 5.5692203911533875 2.9837348995574295 C 5.562481890829195 2.9837348995574295 5.55746430985674 2.989039572289038 5.55746430985674 2.995491796455666 L 5.55746430985674 3.1045931897462196 C 5.55746430985674 3.11104459831126 5.562481890829195 3.1163492710428677 5.5692203911533875 3.1163492710428677 Z M 5.657248270600261 3.091977464375292 C 5.663986770924454 3.091977464375292 5.66900435189691 3.08681633752326 5.66900435189691 3.080221383078644 L 5.66900435189691 3.0198636031232424 C 5.66900435189691 3.0132686486786264 5.663986770924454 3.0081075218265942 5.657248270600261 3.0081075218265942 C 5.650509770276069 3.0081075218265942 5.645492189303614 3.0132686486786264 5.645492189303614 3.0198636031232424 L 5.645492189303614 3.080221383078644 C 5.645492189303614 3.08681633752326 5.650653316155646 3.091977464375292 5.657248270600261 3.091977464375292 Z M 5.436892458945831 3.080652020717372 C 5.443630796149705 3.080652020717372 5.448648540242479 3.07549089386534 5.448648540242479 3.068895939420724 L 5.448648540242479 3.0311890467811624 C 5.448648540242479 3.024594092336546 5.443487413390447 3.019289419604938 5.436892458945831 3.019289419604938 C 5.430154121741956 3.019289419604938 5.425136377649182 3.024594092336546 5.425136377649182 3.0311890467811624 L 5.425136377649182 3.068895939420724 C 5.425136377649182 3.07549089386534 5.430154121741956 3.080652020717372 5.436892458945831 3.080652020717372 Z" fill="#ffffff" transform="matrix(1,0,0,1,0,0)" fill-rule="nonzero"></path></g></g></g><defs><clipPath id="SvgjsClipPath139477"><path d=" M 0 0 h 4.7340270203140795 v 2.8240418273510883 h -4.7340270203140795 Z"></path></clipPath><clipPath id="SvgjsClipPath1394643984fc1d-bbaf-47a8-a6fc-c31190c4e3bc"><path d=" M 0 0 L 4.7340270203140795 0 L 4.7340270203140795 2.8240418273510883 L 0 2.8240418273510883 Z"></path></clipPath><clipPath id="SvgjsClipPath139478"><path d=" M -1.0414834806187745 2.82724134476387 h 0.45673688956035713 v 0.45673688956035713 h -0.45673688956035713 Z"></path></clipPath><clipPath id="SvgjsClipPath139479"><path d=" M 5.318773611372497 2.82724134476387 h 0.45673688956035713 v 0.45673688956035713 h -0.45673688956035713 Z"></path></clipPath></defs></svg>